<?xml version="1.0" encoding="utf-8"?>
<!-- Generator: Adobe Illustrator 21.0.0, SVG Export Plug-In . SVG Version: 6.00 Build 0)  -->
<svg version="1.1" id="Layer_1" xmlns="http://www.w3.org/2000/svg" xmlns:xlink="http://www.w3.org/1999/xlink" x="0px" y="0px"
	 viewBox="0 0 1920 1080" style="enable-background:new 0 0 1920 1080;" xml:space="preserve" fill='#D9042B'
	 transform='rotate(-60) scale(1.4, -1.4) translate(50, -250)'>
<g>
	<path d="M880.6,81.5c-0.7,2.5-1.3,4.4-2.1,7.4c3.5,0,6.4,0.3,9.3-0.1c9.1-1,18.2-2.5,27.3-3.4c4.7-0.5,8-1.7,6-8.1
		c10.6,1.1,20.6,2.2,30.6,3c22.6,1.8,45.2,3.1,67.8,5.2c14.9,1.3,30.1,1.7,43.2,10.6c2.4,1.7,6,2.2,9,2.4
		c29.9,1.7,56.9,13.8,84.3,24.2c10.6,4.1,20.4,10.3,30.7,15c5,2.3,11,2.8,15.7,5.5c9.7,5.5,19.2,11.6,28.3,18.2
		c11.4,8.3,22.2,17.5,33.5,26c5.1,3.8,10.3,7.9,17.7,7.6c0.6-6.2-3.5-9.5-7.1-12.3c-11.2-8.9-22.8-17.5-34.3-26
		c-10.2-7.6-20.6-15-30.9-22.4c0.3-0.5,0.6-1.1,1-1.6c2.7,1.4,5.6,2.5,8,4.1c29.3,19.6,58.6,39.2,87.6,59.1
		c5.3,3.6,10.1,8.4,14.1,13.4c2.9,3.6,4.2,8.6,6.3,12.9c1.5,3.2,3,6.3,4.5,9.5c0.7-0.2,1.3-0.4,2-0.7c0.3-2,0.5-4,0.8-5.9
		c0.4,0,0.7-0.1,0.8,0c15.1,16.3,30.7,32.1,45.1,49c10.2,12,20,24.6,27.6,38.3c19.4,34.9,36.2,71.2,46.3,110.1
		c4,15.6,7,31.6,3.9,47.9c-0.5,2.7-0.2,6.5,1.4,8.4c5.1,6,3.4,12.5,3.5,19.2c0,7.1,0.3,14.3,2.1,21.1c2.1,8,2.5,15.6-0.7,23
		c-1.3,2.9-5,4.7-7.7,6.9c-1.4,1.2-4.2,2.5-4.1,3.3c0.3,1.8,1.8,4.2,3.4,4.9c4.9,1.9,5.1,6,5.1,10c0,3.8-1.2,6.4-5.7,7.8
		c-2.4,0.7-4.3,4.8-5.4,7.7c-3.2,8.5-6.2,17.1-8.6,25.8c-1.7,6-2.9,12.3-3.2,18.5c-0.6,11.9-4.6,22.3-11.3,31.9
		c-0.9,1.3-1.8,2.6-2.7,3.9c-4.9,7.2-9.3,14.4-2.3,20.9c-3.5,5.8-7.4,10.5-9.3,15.8c-4.3,12.1-8.3,24-16,34.6
		c-3.2,4.3-3,11-4.8,16.5c-1.3,4-3.3,7.8-5.1,11.7c-1.8,3.8-3.8,7.6-5.6,11.4c-2.4,4.8-4.1,10.1-7.3,14.2c-2.2,2.8-6.5,4-9.9,6
		c-0.6-0.6-1.1-1.3-1.7-1.9c0.8-2.4,1.2-5.1,2.4-7.3c5.9-10.6,9.2-23,21.1-29.5c1.5-0.8,2.5-4.9,1.8-6.6c-2.1-5.2-5.3-9.9-8-14.9
		c-1.6-3-4.8-6.5-4.2-9c0.9-3.3,4.4-6.3,7.4-8.5c2-1.4,5.2-0.9,7.8-1.5c6.2-1.6,8.9-8.7,4.1-12.3c-4.4-3.3-4.8-7.5-4.7-11.7
		c0.2-10.8,0.9-21.5,1.5-32.3c0.1-2.6,0.4-5.2-0.8-8.2c-2.4,4.9-4.6,10-7.3,14.8c-3.3,6-6.1,12.3-13.6,15.1c-2.6,1-4.7,4.8-6.1,7.8
		c-7.9,17.1-15.4,34.4-23.5,51.4c-3.1,6.5-7.8,12.3-11.5,18.6c-1.3,2.2-1.2,5.4-2.7,7.5c-4.5,6.5-9.5,12.7-14.3,19
		c-0.8-0.5-1.6-1-2.4-1.5c1.3-3.1,2.5-6.3,4-9.3c8.8-17.9,18-35.6,26.5-53.7c11.6-24.7,16.2-51.2,18.4-78.2c0.7-8.5,1.6-17,1.9-25.5
		c0.6-14.9,1.8-29.6-1.1-44.8c-3-15.3-3.7-31.4-2.9-47c2.1-43.9-10.7-84.2-28.4-123.3c-9.3-20.4-20.6-40-28.3-61
		c-11.2-30.5-31.7-54-53.6-76.4c-42-43-93.5-70.7-149.5-90.5c-41.6-14.7-84.7-21.6-128.7-22.9c-47.9-1.4-93.4,10.2-137.4,28.4
		c-13.1,5.4-26.5,10-38.9,16.8c-41.4,22.5-79.5,49.7-111.1,84.9c-13.9,15.5-26.4,32.3-39.6,48.4c-7.6,9.4-15.3,18.7-22.9,28.1
		c-1.1,1.4-2.4,2.8-3,4.4c-8.8,22.7-17.7,45.5-26.3,68.3c-11.4,30.2-18.1,61.5-19.6,93.8c-0.1,1.5,0,3.1,1,4.9
		c1.3-3.8,2.8-7.6,3.9-11.6c4.5-16.9,8.2-34,13.5-50.6c4.5-14.2,10.8-27.9,16.2-41.8c2.4-6,4.3-12.3,7.2-18.1
		c2.9-5.8,6.8-11.2,10.2-16.8c2.1-3.4,4.7-6.7,6.2-10.4c10.4-26,28.4-46.6,47.5-66.3c26.3-27.1,53.5-53.2,84.7-74.8
		c4.8-3.3,10.2-5.6,15.4-8.3c0.6,0.9,1.3,1.8,1.9,2.7c-3.9,3.2-7.6,6.8-11.9,9.4c-23.1,13.8-43.2,31.4-62.5,49.9
		c-6.7,6.4-12.7,13.6-19.1,20.4c0.6,0.7,1.2,1.4,1.8,2.1c2.6-1.7,5.4-3.1,7.7-5c14.6-12.3,28.6-25.3,43.7-37
		C757,255.3,780,240.8,805,230c9.7-4.2,20.5-6.1,30.8-8.9c10.8-2.9,21.5-6.7,32.5-7.9c35-4,70-8.4,105.1-10.2
		c43.9-2.2,84.7,11.9,125.5,26.5c125.4,45.1,207.5,169.1,227.7,262.8c3,13.9,3.8,28.5,3.8,42.8c0,31.2-1,62.4-1.8,93.6
		c-0.1,3.3-1.5,7-3.3,9.9c-7.5,12.2-15.8,24-23,36.4c-3.8,6.5-6,13.9-8.9,20.9c-0.7,1.7-1,3.5-2,5c-16.5,24.6-27.5,52.5-47.4,75
		c-19.1,21.5-41,39.9-63.6,57.4c9-11.7,21.4-20.7,28.7-35.4c-4.5-0.5-7.7-0.9-11.9-1.4c0.4-9.2,7.1-14.3,13.2-21.3
		c0.2,2.7,0.3,4.4,0.4,6.8c10.4-1.6,13.3-17.9,27.4-12.2c-3.6-7.4-1.8-12.9,2.5-18.1c4.9-6-0.8-8.6-4-11.8c2.9-0.4,6.3,0.1,8.4-1.4
		c2-1.5,3-4.8,3.9-7.5c1.1-3.4,1.2-7.2,2.6-10.4c5.4-11.9,11.3-23.7,17.8-37.3c1.1,2.5,2.3,5.2,3.5,7.9c0.7-0.5,1.3-1,2-1.4
		c-2.5-11.6,1.6-22.3,4.2-33.2c3-12.3,5.4-24.8,8.4-37.1c0.7-2.7,2.4-5.3,4.2-7.5c5.5-7,5.6-6.9-1.6-12.6c8.8-7.7,8.1-18.3,8.2-28.4
		c0.5-30.6-1.8-61.1-9.4-90.8c-3.4-13.4-9.2-26.2-14.4-39c-2.5-6.3-3-6.2-15.9-9.4c9.3-7.9,3.7-15.6-0.6-22.6
		c-11.1-17.9-22.7-35.5-34.1-53.2c-1.7-2.6-3.2-5.3-4.8-7.9c-0.9,0.7-1.7,1.4-2.6,2.2c0.1,1.4,0.2,2.7,0.4,4.4
		c-1-0.4-1.7-0.5-2.1-0.9c-7.8-6.5-14.7-13.3-18.6-23.3c-1.9-4.9-7.4-8.9-12.1-12.2c-10-6.9-20.2-13.4-26.9-24
		c-1.1-1.8-3.2-3.5-5.2-4.1c-5.2-1.6-10.4-2.6-12.3-8.7c-0.1-0.3-0.7-0.6-1.1-0.7c-13.7-4.2-23.5-15.4-37-20.5
		c-13.4-5.1-25.9-12.5-39.3-17.6c-7.2-2.8-15.3-3.5-23-4.1c-34-2.7-68.1-5.3-102.2-2.3c-1.3,0.1-2.8,0-4,0.5
		c-22.7,9.2-47.7,12.6-68.9,26c-9,5.8-17.3,13-29,13c-1.1,0-3.1,1-3.3,2c-1.9,7-8,5.8-12.9,7.4c-16,5.1-29.2,14.5-40,27.3
		c-7.8,9.3-15.5,18.6-23.6,27.6c-3.7,4.1-7.8,7.5-14.5,6.8c-5.6-0.6-11.2,8.6-10.1,15.1c0.3,1.5,0.8,2.9,1.4,5.1
		c-2.2-0.4-3.6-0.6-5-1c-5.4-1.5-8.4-0.1-9,6.2c-0.4,3.9-2.1,7.8-4,11.3c-14.1,24.8-27.3,49.9-36.7,77c-1.1,3.1-5,5.5-7.9,7.8
		c-2.2,1.7-5,2.7-9.1,4.9c9.1,0.9,9.5,5.6,8.6,11.6c-3,18.6-6.4,37.2-8.3,55.9c-3.6,35.1,1.9,69.4,11.4,103.1
		c3.4,12.1,7.3,24,11.4,35.9c3.6,10.4,8.7,19.8,15.6,28.7c8.6,11,14.4,24.2,22.2,36c8,12.1,16.3,24.2,25.7,35.1
		c8.7,10,20.7,14.7,34.2,14.9c15.6,0.3,27.4,7.7,36.3,20c8.7,11.9,13,25.5,15.2,39.8c0.5,3.3-1,6.9-1.5,10.3
		c-1.1,7.3-2.9,14.6-2.9,21.9c0.1,14.7-8.1,23.6-20.1,29.1c-4.1,1.9-9.9,0.8-14.7,0.1c-4-0.6-7.7-2.8-12.9-4.9
		c0.9,9.2,3,16.1,8.7,21.3c9.8,8.8,14.3,20.4,17.6,32.6c0.6,2.2-1.1,5.8-2.9,7.5c-4.1,3.8-8.5,7.5-13.5,10
		c-14.4,7.3-29,14.1-43.7,20.7c-6.9,3.1-13.1,1.7-20.2-2.4c-10.6-6.1-22.5-9.9-33.9-14.5c-6.2-2.5-12.7-4.5-18.9-7.1
		c-8.7-3.6-15.7-9-20-18c-5.7-12.1-15.4-18.3-29.3-19c-22.6-1.2-34.5-11.2-41.2-33c-2.4-7.7-6.4-13.5-14-16.9c-4.4-2-8.2-5.5-12-8.6
		c-30.2-24.6-50.4-56.6-68.2-90.8c-31.1-59.7-45.1-123.4-48.4-190.1c-2.6-52.7,4.5-104.1,15.1-155.6c5.6-27.4,17.4-51.6,28.2-76.6
		c13-30.1,27-59.8,47.9-85.4c22.4-27.5,44.2-55.5,67.8-81.8c11.5-12.9,26.1-23.3,40.3-33.5c21.5-15.5,43-31.1,65.9-44.3
		c28.5-16.5,59.8-26.6,92.4-31.9c8-1.3,16.2-2.6,23.6,3.8c5.1,4.4,13.1,2.6,18.8-1.9c1.6-1.2,4.2-2.1,6.1-1.7
		c10.7,1.9,19.4-1.2,26.8-9c1-1.1,2.6-1.8,4-2.5C878.5,81.3,879.2,81.5,880.6,81.5z M967.6,139.1c-1,6.1,3.5,6.6,8.6,6
		c2.2-0.3,4.7-0.5,6.4-1.7c6.1-4.5,13.1-4.6,20-3.9c13.2,1.2,26.3,2.6,39.4,4.4c6.4,0.9,12.7,2.8,18.9,4.6
		c6.3,1.9,12.6,4.3,18.8,6.5c1.4,0.5,3.7,1.6,3.7,2.2c-0.4,6.3,4.6,4.9,7.9,5.7c13,3.2,26.4,5,38.9,9.5
		c22.5,8.1,43.8,18.5,64.1,31.9c24.1,15.9,46.9,33,68.5,52c2.5,2.2,5.1,4.5,8,6.2c1.6,0.9,3.9,0.7,5.9,0.9c-0.1-2.2,0.7-5.2-0.4-6.5
		c-3.9-4.9-8.2-9.5-12.9-13.7c-77.9-70.9-168.6-111.8-274.6-116.9c-60.3-2.9-117.7,9.2-173.2,31.8c-4.1,1.7-7.8,4.4-12.8,7.2
		c2,0.5,2.5,0.8,2.9,0.7c2.2-0.5,4.4-1,6.5-1.7c39.5-11.5,79.4-20.6,120.8-21.7C944.4,142.4,955.9,140.4,967.6,139.1z M645.9,367.3
		c-15.8,8.7-55,102-48,116.8c2.7-5.1,5.2-8.9,6.5-13c2.8-8.7,4.4-17.8,7.4-26.5c6.8-19.7,14.9-38.9,27.2-56
		C643.3,382.7,646.4,376,645.9,367.3z M1308.9,221.5c-0.4,0.4-0.9,0.9-1.3,1.3c3.6,4.4,7.2,8.7,10.7,13.1c6,7.4,11.8,15.1,18,22.2
		c1.3,1.5,4.5,1.5,6.8,2.2c0-2.3,1.1-5.5,0-6.7c-9.9-10.4-20.1-20.4-30.4-30.4C1311.8,222.3,1310.2,222,1308.9,221.5z M639.5,783.6
		c-3.8-16.1-17.3-38.2-24.3-40.4C613.6,754,627.2,776.8,639.5,783.6z M665.6,335c-7.5,3.2-9.7,8.2-6.5,13.8
		C666,345.8,667.7,342.3,665.6,335z M569.5,590.4c-1,0.3-1.9,0.7-2.9,1c1.3,4.6,2.4,9.3,3.9,13.8c0.3,0.9,2.6,1,3.9,1.5
		c0.4-1.3,1.4-3,1-4C573.7,598.5,571.5,594.4,569.5,590.4z M587.3,580.7c0.9-0.4,1.9-0.7,2.8-1.1c-0.2-2.2,0.2-4.9-0.9-6.3
		c-1.1-1.4-3.8-1.5-5.8-2.2c-0.5,0.7-1,1.3-1.5,2C583.8,575.6,585.6,578.2,587.3,580.7z M1261.2,722.2c0.8,0.8,1.6,1.6,2.5,2.4
		c3.5-3.9,7.1-7.9,10.6-11.8c-0.6-0.5-1.1-1-1.7-1.6C1268.9,714.9,1265,718.6,1261.2,722.2z"/>
	<path d="M1334.1,468.2c-17-51-42.5-97.9-72.3-144.5C1285.4,334.6,1339.8,444.4,1334.1,468.2z"/>
	<path d="M1309.9,851.3c-4.9-1.2-8.7-2.1-12.4-3c-0.3-0.8-0.6-1.5-0.9-2.3c6.5-5.6,12.8-11.5,19.6-16.6c1.3-1,4.9,1,7.3,1.9
		c3.9,1.5,7.9,3.1,11.5,5.2c2,1.2,4.7,3.5,4.8,5.4c0.3,7.3-2.6,14.1-8.8,17.8c-8,4.8-16.9,8.2-25.4,12.2c-0.4-0.7-0.8-1.4-1.2-2.1
		c3.1-3.2,6.4-6.2,9.1-9.7c3.1-4,6.2-8.2,8.3-12.9c1.1-2.4,0.2-5.9-0.5-8.8c-0.1-0.6-4.1-1.2-5.2-0.4c-2.7,2-4.9,4.7-6.9,7.4
		C1308.6,846.4,1309.5,848.4,1309.9,851.3z"/>
	<path d="M1212.9,928.7c-1.4-10.2,19.8-27.3,34.3-28.1C1236.1,909.8,1224.9,918.9,1212.9,928.7z"/>
	<path d="M1342.2,509.5c3.7,11.8,8.3,23.5,5.1,36.4C1341.2,542.5,1340.1,533.9,1342.2,509.5z"/>
	<path d="M1251.1,310.1c-8.1-4.7-13.3-10.1-16.5-18.4C1242.6,293.4,1249.7,301.2,1251.1,310.1z"/>
	<path d="M1263.3,911c7.4-6.8,13.5-12.3,20.5-18.7C1283.6,900.6,1275.3,908,1263.3,911z"/>
	<path d="M1351.5,809.8c0.5-7.9,3.9-10.6,11.6-9.6C1362.6,807.2,1357.6,808.6,1351.5,809.8z"/>
	<path d="M1182.8,903.8c-5.8,6.5-11.9,12.6-20.6,14.6c-0.3-0.5-0.7-1.1-1-1.6C1168.5,912.4,1175.6,908.1,1182.8,903.8z"/>
	<path d="M1290.8,810.2c-1.4-6.1,1.2-8.9,6.8-10.4C1299.1,806,1296.2,808.6,1290.8,810.2z"/>
	<path d="M1148.6,855.3c-0.8,5.3-4.2,7-8.8,7c-0.6-0.8-1.2-1.5-1.8-2.3c2.9-2.3,5.8-4.7,8.7-7
		C1147.3,853.8,1147.9,854.6,1148.6,855.3z"/>
	<path d="M1248.8,415.4c7.6-1.1,8.4-0.2,6.5,8.3C1252.8,420.4,1251,418.2,1248.8,415.4z"/>
	<path d="M1355.5,833.1c-9,1.9-9.8,1.2-8.7-6.2C1349.5,828.9,1351.8,830.5,1355.5,833.1z"/>
	<path d="M1290.2,885.2c2.5-3.5,4.1-5.8,6-8.5C1299.4,883.6,1298.7,884.7,1290.2,885.2z"/>
</g>
</svg>
